<mxfile host="app.diagrams.net" modified="2021-10-31T18:49:10.612Z" agent="5.0 (Macintosh; Intel Mac OS X 10_15_7) AppleWebKit/605.1.15 (KHTML, like Gecko) Version/14.1.2 Safari/605.1.15" etag="jvRd4ORnY1L2My95VCYm" version="15.6.2" type="github">
  <diagram id="RymQl5_oODCLrHPwavor" name="Page-1">
    <mxGraphModel dx="1284" dy="1075" grid="1" gridSize="10" guides="1" tooltips="1" connect="1" arrows="1" fold="1" page="1" pageScale="1" pageWidth="850" pageHeight="1100" math="0" shadow="0">
      <root>
        <mxCell id="0" />
        <mxCell id="1" parent="0" />
        <mxCell id="mk51jWXhCHLpo1xptCBX-1" value="BasicCalculator" style="swimlane;fontStyle=1;align=center;verticalAlign=top;childLayout=stackLayout;horizontal=1;startSize=26;horizontalStack=0;resizeParent=1;resizeParentMax=0;resizeLast=0;collapsible=1;marginBottom=0;" parent="1" vertex="1">
          <mxGeometry x="70" y="470" width="230" height="230" as="geometry" />
        </mxCell>
        <mxCell id="mk51jWXhCHLpo1xptCBX-2" value="- result: Double" style="text;strokeColor=none;fillColor=none;align=left;verticalAlign=top;spacingLeft=4;spacingRight=4;overflow=hidden;rotatable=0;points=[[0,0.5],[1,0.5]];portConstraint=eastwest;" parent="mk51jWXhCHLpo1xptCBX-1" vertex="1">
          <mxGeometry y="26" width="230" height="26" as="geometry" />
        </mxCell>
        <mxCell id="mk51jWXhCHLpo1xptCBX-3" value="" style="line;strokeWidth=1;fillColor=none;align=left;verticalAlign=middle;spacingTop=-1;spacingLeft=3;spacingRight=3;rotatable=0;labelPosition=right;points=[];portConstraint=eastwest;" parent="mk51jWXhCHLpo1xptCBX-1" vertex="1">
          <mxGeometry y="52" width="230" height="8" as="geometry" />
        </mxCell>
        <mxCell id="mk51jWXhCHLpo1xptCBX-4" value="+add (input1, input2): Double&#xa;+subtract (input1, input2): Double&#xa;+multiply (input1, input2): Double&#xa;+divide (input1, input2): Double&#xa;+squareRoot (input1): Double&#xa;+square (input1): Double&#xa;+exponent(input1, input2):Double&#xa;+inverse (input1): Double&#xa;+invertNumber(input1): Double&#xa;+percentage(input1) : Double" style="text;strokeColor=none;fillColor=none;align=left;verticalAlign=top;spacingLeft=4;spacingRight=4;overflow=hidden;rotatable=0;points=[[0,0.5],[1,0.5]];portConstraint=eastwest;" parent="mk51jWXhCHLpo1xptCBX-1" vertex="1">
          <mxGeometry y="60" width="230" height="170" as="geometry" />
        </mxCell>
        <mxCell id="mk51jWXhCHLpo1xptCBX-5" value="ScFunctions" style="swimlane;fontStyle=1;align=center;verticalAlign=top;childLayout=stackLayout;horizontal=1;startSize=26;horizontalStack=0;resizeParent=1;resizeParentMax=0;resizeLast=0;collapsible=1;marginBottom=0;" parent="1" vertex="1">
          <mxGeometry x="590" y="360" width="240" height="358" as="geometry" />
        </mxCell>
        <mxCell id="mk51jWXhCHLpo1xptCBX-6" value="- result: Double&#xa;-unitsMode: Int" style="text;strokeColor=none;fillColor=none;align=left;verticalAlign=top;spacingLeft=4;spacingRight=4;overflow=hidden;rotatable=0;points=[[0,0.5],[1,0.5]];portConstraint=eastwest;" parent="mk51jWXhCHLpo1xptCBX-5" vertex="1">
          <mxGeometry y="26" width="240" height="44" as="geometry" />
        </mxCell>
        <mxCell id="mk51jWXhCHLpo1xptCBX-7" value="" style="line;strokeWidth=1;fillColor=none;align=left;verticalAlign=middle;spacingTop=-1;spacingLeft=3;spacingRight=3;rotatable=0;labelPosition=right;points=[];portConstraint=eastwest;" parent="mk51jWXhCHLpo1xptCBX-5" vertex="1">
          <mxGeometry y="70" width="240" height="8" as="geometry" />
        </mxCell>
        <mxCell id="mk51jWXhCHLpo1xptCBX-8" value="+sin(input1): Double&#xa;+cosine(input1): Double&#xa;+tangent(input1: Double&#xa;+inverseSin(input1): Double&#xa;+inverseCosine(input1):Double&#xa;+inverseTangent(input1):Double&#xa;+log(input1): Double&#xa;+inverseLog(input1):Double&#xa;+inverseNaturalLog(input1):Double&#xa;+factorial(input1):Double&#xa;+Octal(input1): Double&#xa;+Binary(input1):Double&#xa;+Hexadecimal(input1): Double&#xa;+rad(inout1): Double&#xa;+degree(input1):Double&#xa;+applyUnitMode(result): Double&#xa;+switchUnitMode(): void&#xa;+setUnitMode(input1): void&#xa;+getUnitMode(): String&#xa;" style="text;strokeColor=none;fillColor=none;align=left;verticalAlign=top;spacingLeft=4;spacingRight=4;overflow=hidden;rotatable=0;points=[[0,0.5],[1,0.5]];portConstraint=eastwest;" parent="mk51jWXhCHLpo1xptCBX-5" vertex="1">
          <mxGeometry y="78" width="240" height="280" as="geometry" />
        </mxCell>
        <mxCell id="mk51jWXhCHLpo1xptCBX-9" value="Console" style="swimlane;fontStyle=1;align=center;verticalAlign=top;childLayout=stackLayout;horizontal=1;startSize=26;horizontalStack=0;resizeParent=1;resizeParentMax=0;resizeLast=0;collapsible=1;marginBottom=0;" parent="1" vertex="1">
          <mxGeometry x="30" y="130" width="330" height="200" as="geometry" />
        </mxCell>
        <mxCell id="mk51jWXhCHLpo1xptCBX-10" value="- field: type" style="text;strokeColor=none;fillColor=none;align=left;verticalAlign=top;spacingLeft=4;spacingRight=4;overflow=hidden;rotatable=0;points=[[0,0.5],[1,0.5]];portConstraint=eastwest;" parent="mk51jWXhCHLpo1xptCBX-9" vertex="1">
          <mxGeometry y="26" width="330" height="26" as="geometry" />
        </mxCell>
        <mxCell id="mk51jWXhCHLpo1xptCBX-11" value="" style="line;strokeWidth=1;fillColor=none;align=left;verticalAlign=middle;spacingTop=-1;spacingLeft=3;spacingRight=3;rotatable=0;labelPosition=right;points=[];portConstraint=eastwest;" parent="mk51jWXhCHLpo1xptCBX-9" vertex="1">
          <mxGeometry y="52" width="330" height="8" as="geometry" />
        </mxCell>
        <mxCell id="mk51jWXhCHLpo1xptCBX-12" value="+ display(currentVal): Double&#xa;+ getStringInput(prompt): String&#xa;+getIntegerInput(prompt, rangeStart, rangeStop):String, Int&#xa;+getDoubleInput(prompt): String&#xa;+applyDisplay(currentVal, displayMode): String&#xa;+applyDisplayMode(input1, displayMode): Int&#xa;+getDisplayMode(): String&#xa;&#xa;&#xa;" style="text;strokeColor=none;fillColor=none;align=left;verticalAlign=top;spacingLeft=4;spacingRight=4;overflow=hidden;rotatable=0;points=[[0,0.5],[1,0.5]];portConstraint=eastwest;" parent="mk51jWXhCHLpo1xptCBX-9" vertex="1">
          <mxGeometry y="60" width="330" height="140" as="geometry" />
        </mxCell>
        <mxCell id="mk51jWXhCHLpo1xptCBX-13" value="Fibonacci" style="swimlane;fontStyle=1;align=center;verticalAlign=top;childLayout=stackLayout;horizontal=1;startSize=26;horizontalStack=0;resizeParent=1;resizeParentMax=0;resizeLast=0;collapsible=1;marginBottom=0;" parent="1" vertex="1">
          <mxGeometry x="630" y="150" width="160" height="60" as="geometry" />
        </mxCell>
        <mxCell id="mk51jWXhCHLpo1xptCBX-15" value="" style="line;strokeWidth=1;fillColor=none;align=left;verticalAlign=middle;spacingTop=-1;spacingLeft=3;spacingRight=3;rotatable=0;labelPosition=right;points=[];portConstraint=eastwest;" parent="mk51jWXhCHLpo1xptCBX-13" vertex="1">
          <mxGeometry y="26" width="160" height="8" as="geometry" />
        </mxCell>
        <mxCell id="mk51jWXhCHLpo1xptCBX-16" value="fibonacci(input1): Double" style="text;strokeColor=none;fillColor=none;align=left;verticalAlign=top;spacingLeft=4;spacingRight=4;overflow=hidden;rotatable=0;points=[[0,0.5],[1,0.5]];portConstraint=eastwest;" parent="mk51jWXhCHLpo1xptCBX-13" vertex="1">
          <mxGeometry y="34" width="160" height="26" as="geometry" />
        </mxCell>
        <mxCell id="mk51jWXhCHLpo1xptCBX-17" value="name" style="endArrow=block;endFill=1;html=1;edgeStyle=orthogonalEdgeStyle;align=left;verticalAlign=top;rounded=0;exitX=1.019;exitY=0.115;exitDx=0;exitDy=0;exitPerimeter=0;" parent="1" source="f8Tqhg3Ib41jFK50YA1g-5" target="mk51jWXhCHLpo1xptCBX-5" edge="1">
          <mxGeometry x="0.5392" y="10" relative="1" as="geometry">
            <mxPoint x="560" y="438" as="sourcePoint" />
            <mxPoint x="500" y="460" as="targetPoint" />
            <mxPoint as="offset" />
          </mxGeometry>
        </mxCell>
        <mxCell id="mk51jWXhCHLpo1xptCBX-18" value="1" style="edgeLabel;resizable=0;html=1;align=left;verticalAlign=bottom;" parent="mk51jWXhCHLpo1xptCBX-17" connectable="0" vertex="1">
          <mxGeometry x="-1" relative="1" as="geometry">
            <mxPoint x="-20" y="-26" as="offset" />
          </mxGeometry>
        </mxCell>
        <mxCell id="mk51jWXhCHLpo1xptCBX-21" value="name" style="endArrow=block;endFill=1;html=1;edgeStyle=orthogonalEdgeStyle;align=left;verticalAlign=top;rounded=0;exitX=1.019;exitY=0.192;exitDx=0;exitDy=0;exitPerimeter=0;" parent="1" source="f8Tqhg3Ib41jFK50YA1g-3" target="mk51jWXhCHLpo1xptCBX-16" edge="1">
          <mxGeometry x="-0.5062" y="-10" relative="1" as="geometry">
            <mxPoint x="548.96" y="324.8520000000001" as="sourcePoint" />
            <mxPoint x="480" y="460" as="targetPoint" />
            <Array as="points">
              <mxPoint x="549" y="391" />
              <mxPoint x="549" y="370" />
              <mxPoint x="540" y="370" />
              <mxPoint x="540" y="180" />
              <mxPoint x="630" y="180" />
            </Array>
            <mxPoint as="offset" />
          </mxGeometry>
        </mxCell>
        <mxCell id="mk51jWXhCHLpo1xptCBX-22" value="1" style="edgeLabel;resizable=0;html=1;align=left;verticalAlign=bottom;" parent="mk51jWXhCHLpo1xptCBX-21" connectable="0" vertex="1">
          <mxGeometry x="-1" relative="1" as="geometry" />
        </mxCell>
        <mxCell id="mk51jWXhCHLpo1xptCBX-23" value="name" style="endArrow=block;endFill=1;html=1;edgeStyle=orthogonalEdgeStyle;align=left;verticalAlign=top;rounded=0;exitX=0.131;exitY=-0.012;exitDx=0;exitDy=0;exitPerimeter=0;entryX=0.612;entryY=0.006;entryDx=0;entryDy=0;entryPerimeter=0;" parent="1" target="mk51jWXhCHLpo1xptCBX-9" edge="1" source="f8Tqhg3Ib41jFK50YA1g-2">
          <mxGeometry x="0.1333" y="20" relative="1" as="geometry">
            <mxPoint x="470" y="330" as="sourcePoint" />
            <mxPoint x="240" y="149" as="targetPoint" />
            <Array as="points">
              <mxPoint x="361" y="330" />
              <mxPoint x="470" y="330" />
              <mxPoint x="470" y="60" />
              <mxPoint x="220" y="60" />
              <mxPoint x="220" y="131" />
            </Array>
            <mxPoint as="offset" />
          </mxGeometry>
        </mxCell>
        <mxCell id="mk51jWXhCHLpo1xptCBX-24" value="1" style="edgeLabel;resizable=0;html=1;align=left;verticalAlign=bottom;" parent="mk51jWXhCHLpo1xptCBX-23" connectable="0" vertex="1">
          <mxGeometry x="-1" relative="1" as="geometry">
            <mxPoint y="-10" as="offset" />
          </mxGeometry>
        </mxCell>
        <mxCell id="f8Tqhg3Ib41jFK50YA1g-2" value="MainApplication" style="swimlane;fontStyle=1;align=center;verticalAlign=top;childLayout=stackLayout;horizontal=1;startSize=26;horizontalStack=0;resizeParent=1;resizeParentMax=0;resizeLast=0;collapsible=1;marginBottom=0;" vertex="1" parent="1">
          <mxGeometry x="340" y="360" width="160" height="288" as="geometry" />
        </mxCell>
        <mxCell id="f8Tqhg3Ib41jFK50YA1g-3" value="-currentValue: Double&#xa;-calculatorType: Int&#xa;-basicCalc: BasicCalculator&#xa;-scientificCal: ScFunction&#xa;-fibo: Fibonacci&#xa;&#xa;" style="text;strokeColor=none;fillColor=none;align=left;verticalAlign=top;spacingLeft=4;spacingRight=4;overflow=hidden;rotatable=0;points=[[0,0.5],[1,0.5]];portConstraint=eastwest;" vertex="1" parent="f8Tqhg3Ib41jFK50YA1g-2">
          <mxGeometry y="26" width="160" height="134" as="geometry" />
        </mxCell>
        <mxCell id="f8Tqhg3Ib41jFK50YA1g-4" value="" style="line;strokeWidth=1;fillColor=none;align=left;verticalAlign=middle;spacingTop=-1;spacingLeft=3;spacingRight=3;rotatable=0;labelPosition=right;points=[];portConstraint=eastwest;" vertex="1" parent="f8Tqhg3Ib41jFK50YA1g-2">
          <mxGeometry y="160" width="160" height="8" as="geometry" />
        </mxCell>
        <mxCell id="f8Tqhg3Ib41jFK50YA1g-5" value="-runCalculator(): void&#xa;-runBasicCalculator(): int&#xa;-sunScientificCalculator(): int" style="text;strokeColor=none;fillColor=none;align=left;verticalAlign=top;spacingLeft=4;spacingRight=4;overflow=hidden;rotatable=0;points=[[0,0.5],[1,0.5]];portConstraint=eastwest;" vertex="1" parent="f8Tqhg3Ib41jFK50YA1g-2">
          <mxGeometry y="168" width="160" height="120" as="geometry" />
        </mxCell>
        <mxCell id="f8Tqhg3Ib41jFK50YA1g-6" value="" style="endArrow=block;endFill=1;html=1;edgeStyle=orthogonalEdgeStyle;align=left;verticalAlign=top;rounded=0;entryX=0.5;entryY=0;entryDx=0;entryDy=0;" edge="1" parent="1" target="mk51jWXhCHLpo1xptCBX-1">
          <mxGeometry x="-1" relative="1" as="geometry">
            <mxPoint x="340" y="410" as="sourcePoint" />
            <mxPoint x="500" y="410" as="targetPoint" />
          </mxGeometry>
        </mxCell>
        <mxCell id="f8Tqhg3Ib41jFK50YA1g-7" value="1" style="edgeLabel;resizable=0;html=1;align=left;verticalAlign=bottom;" connectable="0" vertex="1" parent="f8Tqhg3Ib41jFK50YA1g-6">
          <mxGeometry x="-1" relative="1" as="geometry">
            <mxPoint x="-40" y="-10" as="offset" />
          </mxGeometry>
        </mxCell>
      </root>
    </mxGraphModel>
  </diagram>
</mxfile>
